<?xml version="1.0" encoding="UTF-8"?>
<svg width="24px" height="24px" viewBox="0 0 24 24" version="1.1" xmlns="http://www.w3.org/2000/svg" xmlns:xlink="http://www.w3.org/1999/xlink">
    <title>通知</title>
    <defs>
        <linearGradient x1="-1.11022302e-14%" y1="50%" x2="100%" y2="50%" id="linearGradient-1">
            <stop stop-color="#0390FF" offset="0%"></stop>
            <stop stop-color="#8ADAFF" offset="100%"></stop>
        </linearGradient>
    </defs>
    <g id="小程序卡券-设计稿0920" stroke="none" stroke-width="1" fill="none" fill-rule="evenodd">
        <g id="首页" transform="translate(-48, -529)" fill-rule="nonzero">
            <g id="编组-4" transform="translate(24, 512)">
                <g id="通知" transform="translate(24, 17)">
                    <rect id="矩形" fill="#000000" opacity="0" x="0" y="0" width="23.9999939" height="23.9999939"></rect>
                    <path d="M20.3377448,4.75274878 C22.6424367,6.44788321 24.0023574,9.13903909 23.9999969,11.9999969 C23.9999969,14.9624962 22.5682442,17.5912455 20.3587448,19.2314951 L19.467745,18.0247454 C21.3768446,16.6110952 22.502012,14.3755103 22.4999942,11.9999969 C22.5018051,9.61509495 21.3676776,7.3719066 19.445995,5.95949847 L20.3377448,4.75274878 L20.3377448,4.75274878 Z M18.1094954,7.76924801 C19.4563938,8.75784314 20.2514205,10.3292325 20.2499967,11.9999969 C20.2513315,13.6614779 19.4649993,15.2252383 18.1304954,16.2149958 L17.2387456,15.0082462 C18.1902415,14.3012168 18.7507813,13.1854228 18.7499952,11.9999969 C18.75087,10.8052873 18.1816356,9.68186449 17.2177456,8.9759977 L18.1094954,7.76924801 L18.1094954,7.76924801 Z M1.5,5.99999846 L6.17999842,5.99999846 C6.54716369,5.99990232 6.90154213,5.86514245 7.17599816,5.62124856 L12.2519969,1.10924972 C12.4728129,0.91316108 12.7881449,0.864906191 13.0574967,0.985985006 C13.3268485,1.10706382 13.5,1.37493539 13.5,1.67024957 L13.5,22.1894943 C13.5,22.4927912 13.317201,22.7661947 13.0369876,22.8822526 C12.7567742,22.9983105 12.4342425,22.9341751 12.2197469,22.7197442 L7.18949816,17.6894955 C6.90825913,17.4081715 6.52679055,17.2500805 6.12899843,17.2499956 L1.5,17.2499956 C0.671572703,17.2499956 0,16.5784229 0,15.749996 L0,7.49999808 C0,6.67157117 0.671572703,5.99999846 1.5,5.99999846 Z" id="形状" fill="url(#linearGradient-1)"></path>
                </g>
            </g>
        </g>
    </g>
</svg>