<?xml version="1.0" encoding="UTF-8"?>
<svg width="26px" height="26px" viewBox="0 0 26 26" version="1.1" xmlns="http://www.w3.org/2000/svg" xmlns:xlink="http://www.w3.org/1999/xlink">
    <title>4-6投诉</title>
    <g id="客服" stroke="none" stroke-width="1" fill="none" fill-rule="evenodd">
        <g id="投诉" transform="translate(-285, -518)" fill="#4F7FFF" fill-rule="nonzero">
            <g id="编组-3" transform="translate(24, 481.1227)">
                <g id="编组-2" transform="translate(261, 30)">
                    <g id="4-6投诉" transform="translate(0, 7.5)">
                        <rect id="矩形" opacity="0" x="0" y="6.43858584e-08" width="24.9999999" height="24.9999999"></rect>
                        <path d="M8.48849485,16.4529084 L13.9057969,14.9144319 L10.0362954,11.0697947 L8.48849485,16.4529084 Z M22.959498,5.91667544 L19.0899965,2.07203822 L10.5770932,10.5321049 L14.4465947,14.3767421 L22.959498,5.91667544 L22.959498,5.91667544 Z M21.8312819,20.1576841 C21.8312819,21.4941384 20.7465782,22.578842 19.4101239,22.578842 L4.88939227,22.578842 C3.55293795,22.578842 2.46823432,21.4941384 2.46823432,20.1576841 L2.46823432,5.63695244 C2.46823432,4.30049812 3.55293795,3.21579449 4.88939227,3.21579449 L14.5709161,3.21579449 L16.992074,0.794636537 L4.0813036,0.794636537 C1.85284372,0.794636537 0.0470763671,2.60040389 0.0470763671,4.82886377 L0.0470763671,20.9657728 C0.0470763671,23.1942326 1.85284372,25 4.0813036,25 L20.2182126,25 C22.4466725,25 24.2524398,23.1942326 24.2524398,20.9657728 L24.2524398,8.0581104 L21.8312819,10.4792683 L21.8312819,20.1576841 Z M24.7559412,2.68742882 L22.3378913,0.284919082 C21.936955,-0.112909188 21.2656198,-0.0911529627 20.8398192,0.331539565 L19.6805228,1.48461993 L23.5500243,5.32925716 L24.7124287,4.17617679 C25.1351213,3.75348426 25.1568775,3.08525709 24.7559412,2.68742882 Z" id="形状"></path>
                    </g>
                </g>
            </g>
        </g>
    </g>
</svg>