<?xml version="1.0" encoding="UTF-8"?>
<svg width="40px" height="41px" viewBox="0 0 40 41" version="1.1" xmlns="http://www.w3.org/2000/svg" xmlns:xlink="http://www.w3.org/1999/xlink">
    <title>客服</title>
    <g id="客服" stroke="none" stroke-width="1" fill="none" fill-rule="evenodd">
        <g id="客服首页备份-2" transform="translate(-24, -367)" fill="#4F7FFF" fill-rule="nonzero">
            <g id="客服" transform="translate(24, 367.5069)">
                <rect id="矩形" opacity="0" x="0" y="0" width="40" height="40"></rect>
                <path d="M36.4771119,22.2724366 L36.4771119,21.129823 C36.5623816,15.9283735 35.0360546,11.5455127 32.0260354,8.43316988 C30.5659487,6.92940326 28.793137,5.76499493 26.8331128,5.02238328 C26.517615,2.25111914 23.4990689,0 19.8239462,0 C16.1488236,0 13.1132236,2.21701129 12.8147798,5.03091023 C10.8572987,5.77362865 9.08729178,6.93810693 7.63038414,8.44169688 C4.64594586,11.5455127 3.07698402,15.9027926 3.17078062,21.1127691 L3.17078062,22.5026647 C2.19208167,23.4540512 1.83259314,24.8755151 2.24134129,26.1777873 C2.56833417,27.365326 3.45259127,28.3195603 4.61183797,28.7358772 C5.19665852,29.1117655 5.87784391,29.3101978 6.57304027,29.307184 C7.88699181,35.6295491 13.5393243,40.1040131 19.9944856,39.9317843 C26.4432924,40.0956383 32.0860488,35.6230719 33.398877,29.307184 L33.5353084,29.307184 C34.3990392,29.2984943 35.2344518,28.9979862 35.9058052,28.4544873 C36.7877259,27.9486225 37.4297501,27.1099976 37.6879412,26.1266255 C38.0978894,24.7050141 37.6217027,23.1758512 36.4771119,22.2383287 L36.4771119,22.2724366 Z M32.5035455,25.6832232 C32.5051801,26.5054526 32.4424575,27.3265487 32.3159522,28.1389896 C30.0405923,31.7856803 26.1859503,34.1533964 21.9045261,34.5342145 C21.4442446,34.0156245 20.7720368,33.7360615 20.0797553,33.7753144 C18.9371418,33.7753144 18.0162294,34.397783 18.0162294,35.173737 C18.0162294,35.9496909 18.9286148,36.5721595 20.0797553,36.5721595 C20.9376245,36.6623704 21.7563302,36.1910987 22.1091733,35.403965 C23.5434202,35.2426479 24.94905,34.8869375 26.2873869,34.3466212 C28.1353425,33.6063505 29.808258,32.4881691 31.1989196,31.0637391 C31.4291477,30.833511 31.6337949,30.6032829 31.8384421,30.3560009 C30.1927376,35.403965 25.7842959,38.6442123 20.0541744,38.6442123 L19.9944856,38.6442123 C12.6101326,38.6442123 7.47689875,33.3233852 7.47689875,25.7173311 L7.47689875,24.9925389 C7.47689875,24.6685142 7.52806055,23.7987636 7.57069535,22.9801748 C10.6318763,21.8631422 13.3946135,17.591132 14.5116461,15.6214027 C16.2907401,18.0601942 18.7110568,19.9580766 21.5037587,21.1042421 C22.8240314,21.5645103 24.178258,21.9208857 25.5540678,22.170113 C28.2315353,22.7414197 30.7640443,23.2871456 32.4779646,25.5297378 L32.5461804,25.5894266 L32.5035455,25.6832232 Z" id="形状"></path>
            </g>
        </g>
    </g>
</svg>