<?xml version="1.0" encoding="UTF-8"?>
<svg width="37px" height="37px" viewBox="0 0 37 37" version="1.1" xmlns="http://www.w3.org/2000/svg" xmlns:xlink="http://www.w3.org/1999/xlink">
    <title>编组 7</title>
    <defs>
        <linearGradient x1="50%" y1="0%" x2="50%" y2="100%" id="linearGradient-1">
            <stop stop-color="#FF0F19" offset="0%"></stop>
            <stop stop-color="#FE5702" offset="100%"></stop>
        </linearGradient>
    </defs>
    <g id="小程序卡券-设计稿0920" stroke="none" stroke-width="1" fill="none" fill-rule="evenodd">
        <g id="报告查询" transform="translate(-61, -869)">
            <g id="位图备份-4" transform="translate(24, 380.0477)">
                <g id="编组-7" transform="translate(37.9765, 489.214)">
                    <circle id="椭圆形" fill="url(#linearGradient-1)" cx="18" cy="18" r="18"></circle>
                    <path d="M24.709063,9.90285499 C26.114496,9.90285499 27.25388,11.042239 27.25388,12.447672 L27.25388,15.68653 C27.25388,16.0698382 26.9431473,16.380571 26.559839,16.380571 C25.6654531,16.380571 24.94041,17.1056141 24.94041,18 C24.94041,18.8943859 25.6654531,19.619429 26.559839,19.619429 C26.9431473,19.619429 27.25388,19.9301618 27.25388,20.31347 L27.25388,23.552328 C27.25388,24.957761 26.1144961,26.097145 24.709063,26.097145 L11.290937,26.097145 C9.88550397,26.097145 8.74611998,24.957761 8.74611998,23.552328 L8.74611998,20.31347 C8.74611998,19.9301618 9.05685272,19.619429 9.44016098,19.619429 C10.3345469,19.619429 11.05959,18.8943859 11.05959,18 C11.05959,17.1056141 10.3345469,16.380571 9.44016098,16.380571 C9.05685272,16.380571 8.74611998,16.0698382 8.74611998,15.68653 L8.74611998,12.447672 C8.74611998,11.042239 9.88550395,9.90285499 11.290937,9.90285499 L24.709063,9.90285499 Z M16.1906351,14.0525261 C15.9387961,13.7864371 15.5235052,13.7619248 15.2421124,13.9965402 L15.2092611,14.0256899 C14.9431721,14.2775289 14.9186598,14.6928198 15.1532752,14.9742126 L16.7109345,16.843265 L15.68653,16.843265 L15.6458129,16.8444217 C15.2789379,16.8659822 14.9924685,17.169798 14.992489,17.537306 L14.9936457,17.5780231 C15.0152062,17.9448981 15.319022,18.2313675 15.68653,18.231347 L17.4216325,18.231347 L17.4216325,19.156735 L15.68653,19.156735 L15.6458129,19.1578917 C15.2789379,19.1794522 14.9924685,19.483268 14.992489,19.850776 L14.9936457,19.8914931 C15.0152062,20.2583681 15.319022,20.5448375 15.68653,20.544817 L17.4216325,20.544817 L17.4216325,21.470205 L17.4227892,21.5109221 C17.4443497,21.8777971 17.7481655,22.164246 18.1156735,22.164246 L18.1563906,22.1630893 C18.5232656,22.1415288 18.809735,21.837713 18.8097145,21.470205 L18.8097145,20.544817 L20.31347,20.544817 L20.3541871,20.5436603 C20.7210621,20.5220998 21.0075315,20.218284 21.007511,19.850776 L21.0063543,19.8100589 C20.9847938,19.4431839 20.680978,19.1567145 20.31347,19.156735 L18.8097145,19.156735 L18.8097145,18.231347 L20.31347,18.231347 L20.3541871,18.2301903 C20.7210621,18.2086298 21.0075315,17.904814 21.007511,17.537306 L21.0063543,17.4965889 C20.9847938,17.1297139 20.680978,16.8432445 20.31347,16.843265 L19.2886028,16.843265 L20.8467248,14.9739812 L20.8737924,14.9395105 C21.0975535,14.637041 21.0395633,14.211361 20.7430472,13.9797687 C20.4465312,13.7481763 20.0194806,13.7950175 19.7802152,14.0853774 L18,16.221867 L16.2197848,14.0853774 L16.1906351,14.0525261 Z" id="形状" fill="#FFFFFF" fill-rule="nonzero"></path>
                </g>
            </g>
        </g>
    </g>
</svg>