<?xml version="1.0" encoding="UTF-8"?>
<svg width="31px" height="32px" viewBox="0 0 31 32" version="1.1" xmlns="http://www.w3.org/2000/svg" xmlns:xlink="http://www.w3.org/1999/xlink">
    <title>券</title>
    <defs>
        <linearGradient x1="27.9576785%" y1="83.5988304%" x2="50%" y2="27.0243294%" id="linearGradient-1">
            <stop stop-color="#045BFF" offset="0%"></stop>
            <stop stop-color="#00A0FF" offset="100%"></stop>
        </linearGradient>
    </defs>
    <g id="小程序卡券-设计稿0920" stroke="none" stroke-width="1" fill="none" fill-rule="evenodd">
        <g id="我的" transform="translate(-57, -576)" fill-rule="nonzero">
            <g id="券" transform="translate(57.05, 576.55)">
                <rect id="矩形" fill="#000000" opacity="0" x="0" y="0" width="30.9" height="30.9"></rect>
                <path d="M2.4102,11.4021 C2.4102,10.8459 2.5029,10.44935 2.6883,10.21245 C2.8737,9.97555 3.2857,9.8571 3.9243,9.8571 L7.8795,9.8571 L7.8795,25.3071 L6.18,25.3071 C5.7268,25.3071 5.27875,25.30195 4.83585,25.29165 C4.39295,25.28135 4.0891,25.2762 3.9243,25.2762 C3.3681,25.2968 2.9767,25.2041 2.7501,24.9981 C2.5235,24.7921 2.4102,24.4007 2.4102,23.8239 L2.4102,19.3743 C2.4102,19.1477 2.44625,18.97775 2.51835,18.86445 C2.59045,18.75115 2.7398,18.6739 2.9664,18.6327 C3.0488,18.6327 3.1621,18.6018 3.3063,18.54 C3.4505,18.4782 3.5947,18.38035 3.7389,18.24645 C3.8831,18.11255 4.0067,17.93745 4.1097,17.72115 C4.2127,17.50485 4.2642,17.2422 4.2642,16.9332 C4.2642,16.4594 4.13545,16.0886 3.87795,15.8208 C3.62045,15.553 3.3475,15.3985 3.0591,15.3573 C2.8325,15.3161 2.6677,15.24915 2.5647,15.15645 C2.4617,15.06375 2.4102,14.9041 2.4102,14.6775 L2.4102,11.4021 L2.4102,11.4021 Z M4.9749,8.4666 L4.9749,8.0958 L4.9749,8.0649 L4.9749,8.034 L4.9749,7.6632 C4.9749,7.2512 5.13455,6.8701 5.45385,6.5199 C5.77315,6.1697 6.1182,5.9946 6.489,5.9946 L10.7532,5.9946 L10.7532,8.4666 L4.9749,8.4666 Z M30.1584,15.1719 C29.9936,15.2131 29.87515,15.30065 29.80305,15.43455 C29.73095,15.56845 29.6949,15.7178 29.6949,15.8826 C29.6949,16.0474 29.73095,16.20705 29.80305,16.36155 C29.87515,16.51605 29.9936,16.6242 30.1584,16.686 C30.3232,16.7478 30.45195,16.8714 30.54465,17.0568 C30.63735,17.2422 30.68885,17.4379 30.69915,17.6439 C30.70945,17.8499 30.6837,18.0456 30.6219,18.231 C30.5601,18.4164 30.4674,18.5503 30.3438,18.6327 C29.9318,18.8799 29.7258,19.158 29.7258,19.467 C29.7258,19.776 29.9318,20.085 30.3438,20.394 C30.4262,20.4558 30.50345,20.5691 30.57555,20.7339 C30.64765,20.8987 30.6837,21.0635 30.6837,21.2283 C30.6837,21.3931 30.6425,21.5373 30.5601,21.6609 C30.4777,21.7845 30.3335,21.8463 30.1275,21.8463 L28.4589,21.8463 C28.3353,21.8463 28.26835,21.836 28.25805,21.8154 C28.24775,21.7948 28.2632,21.75875 28.3044,21.70725 C28.3456,21.65575 28.3971,21.5991 28.4589,21.5373 C28.5207,21.4755 28.5722,21.4034 28.6134,21.321 C28.7164,21.0326 28.7164,20.7854 28.6134,20.5794 C28.5104,20.3734 28.3353,20.1983 28.0881,20.0541 C27.9233,19.9717 27.80485,19.84295 27.73275,19.66785 C27.66065,19.49275 27.62975,19.3125 27.64005,19.1271 C27.65035,18.9417 27.6864,18.7769 27.7482,18.6327 C27.81,18.4885 27.9027,18.3855 28.0263,18.3237 C28.1911,18.2619 28.3147,18.1486 28.3971,17.9838 C28.4795,17.819 28.5207,17.6439 28.5207,17.4585 C28.5207,17.2731 28.4898,17.10315 28.428,16.94865 C28.3662,16.79415 28.2735,16.686 28.1499,16.6242 C27.9851,16.5418 27.85635,16.4182 27.76365,16.2534 C27.67095,16.0886 27.6246,15.9032 27.6246,15.6972 C27.6246,15.4912 27.6658,15.29035 27.7482,15.09465 C27.8306,14.89895 27.9645,14.7393 28.1499,14.6157 C28.2735,14.5333 28.3765,14.42 28.4589,14.2758 C28.5413,14.1316 28.58765,13.9771 28.59795,13.8123 C28.60825,13.6475 28.57735,13.48785 28.50525,13.33335 C28.43315,13.17885 28.3044,13.0501 28.119,12.9471 C27.913,12.8441 27.76365,12.69475 27.67095,12.49905 C27.57825,12.30335 27.5319,12.1025 27.5319,11.8965 C27.5319,11.6905 27.57825,11.4948 27.67095,11.3094 C27.76365,11.124 27.8924,10.9798 28.0572,10.8768 C28.4074,10.6914 28.59795,10.43905 28.62885,10.11975 C28.65975,9.80045 28.634,9.5069 28.5516,9.2391 C28.4898,9.0331 28.3662,8.8477 28.1808,8.6829 C27.9954,8.5181 27.7585,8.4357 27.4701,8.4357 L12.6381,8.4357 L12.6381,5.9946 L30.0348,5.9946 C30.179,5.9946 30.3026,6.0461 30.4056,6.1491 C30.5086,6.2521 30.57555,6.3757 30.60645,6.5199 C30.63735,6.6641 30.62705,6.81345 30.57555,6.96795 C30.52405,7.12245 30.4262,7.2512 30.282,7.3542 C30.1584,7.4572 30.05025,7.5911 29.95755,7.7559 C29.86485,7.9207 29.81335,8.09065 29.80305,8.26575 C29.79275,8.44085 29.8185,8.61595 29.8803,8.79105 C29.9421,8.96615 30.0554,9.0949 30.2202,9.1773 C30.4468,9.3009 30.61675,9.47085 30.73005,9.68715 C30.84335,9.90345 30.9,10.11975 30.9,10.33605 C30.9,10.55235 30.84335,10.7532 30.73005,10.9386 C30.61675,11.124 30.4571,11.2579 30.2511,11.3403 C30.0245,11.4227 29.8597,11.54115 29.7567,11.69565 C29.6537,11.85015 29.59705,12.0201 29.58675,12.2055 C29.57645,12.3909 29.61765,12.57115 29.71035,12.74625 C29.80305,12.92135 29.9524,13.0707 30.1584,13.1943 C30.3644,13.3179 30.51375,13.4827 30.60645,13.6887 C30.69915,13.8947 30.74035,14.1007 30.73005,14.3067 C30.71975,14.5127 30.66825,14.70325 30.57555,14.87835 C30.48285,15.05345 30.3438,15.1513 30.1584,15.1719 L30.1584,15.1719 Z M26.1414,14.7084 C25.8942,14.7702 25.70365,14.88865 25.56975,15.06375 C25.43585,15.23885 25.36375,15.4191 25.35345,15.6045 C25.34315,15.7899 25.39465,15.9753 25.50795,16.1607 C25.62125,16.3461 25.7912,16.48 26.0178,16.5624 C26.2238,16.6448 26.3783,16.7684 26.4813,16.9332 C26.5843,17.098 26.64095,17.2731 26.65125,17.4585 C26.66155,17.6439 26.6255,17.819 26.5431,17.9838 C26.4607,18.1486 26.3371,18.2722 26.1723,18.3546 C25.6573,18.6018 25.3895,18.9005 25.3689,19.2507 C25.3483,19.6009 25.544,19.879 25.956,20.085 C26.1414,20.1674 26.29075,20.29615 26.40405,20.47125 C26.51735,20.64635 26.57915,20.83175 26.58945,21.02745 C26.59975,21.22315 26.5637,21.39825 26.4813,21.55275 C26.3989,21.70725 26.265,21.8154 26.0796,21.8772 C25.8324,21.939 25.64185,22.0523 25.50795,22.2171 C25.37405,22.3819 25.30195,22.557 25.29165,22.7424 C25.28135,22.9278 25.33285,23.1132 25.44615,23.2986 C25.55945,23.484 25.7397,23.6385 25.9869,23.7621 C26.1517,23.8445 26.27015,23.97325 26.34225,24.14835 C26.41435,24.32345 26.4401,24.4934 26.4195,24.6582 C26.3989,24.823 26.34225,24.97235 26.24955,25.10625 C26.15685,25.24015 26.0281,25.3071 25.8633,25.3071 L9.7026,25.3071 L9.7026,9.8571 L26.0487,9.8571 C26.2135,9.8571 26.34225,9.92405 26.43495,10.05795 C26.52765,10.19185 26.57915,10.3412 26.58945,10.506 C26.59975,10.6708 26.5637,10.8356 26.4813,11.0004 C26.3989,11.1652 26.265,11.2785 26.0796,11.3403 C25.8942,11.4021 25.74485,11.5051 25.63155,11.6493 C25.51825,11.7935 25.4513,11.95315 25.4307,12.12825 C25.4101,12.30335 25.4513,12.4733 25.5543,12.6381 C25.6573,12.8029 25.8324,12.9265 26.0796,13.0089 C26.265,13.0913 26.41435,13.2149 26.52765,13.3797 C26.64095,13.5445 26.70275,13.71445 26.71305,13.88955 C26.72335,14.06465 26.68215,14.22945 26.58945,14.38395 C26.49675,14.53845 26.3474,14.6466 26.1414,14.7084 L26.1414,14.7084 Z M18.6945,16.7787 C18.5915,16.7787 18.48335,16.7684 18.37005,16.7478 C18.25675,16.7272 18.231,16.6654 18.2928,16.5624 C18.3134,16.5212 18.41125,16.377 18.58635,16.1298 C18.76145,15.8826 18.95715,15.61995 19.17345,15.34185 C19.38975,15.06375 19.5906,14.8011 19.776,14.5539 C19.9614,14.3067 20.0747,14.1522 20.1159,14.0904 C20.2189,13.9256 20.1571,13.7299 19.9305,13.5033 C19.8893,13.4621 19.8069,13.4003 19.6833,13.3179 C19.5597,13.2355 19.4464,13.1737 19.3434,13.1325 C19.1786,13.0707 19.06015,13.0604 18.98805,13.1016 C18.91595,13.1428 18.8284,13.2355 18.7254,13.3797 C18.6842,13.4415 18.5812,13.59085 18.4164,13.82775 C18.2516,14.06465 18.0765,14.317 17.8911,14.5848 C17.7057,14.8526 17.53575,15.09465 17.38125,15.31095 C17.22675,15.52725 17.1392,15.656 17.1186,15.6972 C17.0774,15.7796 17.00015,15.8105 16.88685,15.7899 C16.77355,15.7693 16.6963,15.7178 16.6551,15.6354 C16.6345,15.5942 16.5418,15.47575 16.377,15.28005 C16.2122,15.08435 16.0371,14.8629 15.8517,14.6157 C15.6663,14.3685 15.48605,14.13675 15.31095,13.92045 C15.13585,13.70415 15.0174,13.5548 14.9556,13.4724 C14.7702,13.1222 14.5745,13.0089 14.3685,13.1325 C14.2243,13.2149 14.09555,13.30245 13.98225,13.39515 C13.86895,13.48785 13.7608,13.5651 13.6578,13.6269 C13.4518,13.7711 13.4209,13.9565 13.5651,14.1831 C13.9153,14.5951 14.2243,14.9762 14.4921,15.3264 C14.7187,15.6148 14.935,15.8929 15.141,16.1607 C15.347,16.4285 15.4706,16.583 15.5118,16.6242 C15.553,16.7066 15.5118,16.7478 15.3882,16.7478 L15.0174,16.7478 C14.9144,16.7478 14.76505,16.75295 14.56935,16.76325 C14.37365,16.77355 14.1934,16.7684 14.0286,16.7478 C13.8638,16.7478 13.7299,16.789 13.6269,16.8714 C13.5239,16.9538 13.493,17.0568 13.5342,17.1804 C13.5548,17.2628 13.5651,17.3864 13.5651,17.5512 L13.5651,17.922 C13.5651,18.025 13.596,18.08165 13.6578,18.09195 C13.7196,18.10225 13.7917,18.1074 13.8741,18.1074 L15.6663,18.1074 C15.9135,18.1074 16.0371,18.1589 16.0371,18.2619 L16.0371,18.849 C16.0371,18.952 16.0165,19.0035 15.9753,19.0035 L15.8208,19.0035 L15.5118,19.0035 L14.8938,19.0035 L14.2758,19.0035 L13.905,19.0035 C13.7814,18.9829 13.699,19.0138 13.6578,19.0962 C13.6166,19.1786 13.5857,19.2713 13.5651,19.3743 C13.5445,19.4773 13.5445,19.57515 13.5651,19.66785 C13.5857,19.76055 13.596,19.8378 13.596,19.8996 C13.596,20.1674 13.7299,20.3013 13.9977,20.3013 L15.8517,20.3013 C15.9547,20.3013 16.0165,20.31675 16.0371,20.34765 C16.0577,20.37855 16.068,20.4455 16.068,20.5485 C16.0886,20.6515 16.09375,20.8369 16.08345,21.1047 C16.07315,21.3725 16.068,21.5476 16.068,21.63 C16.068,21.8566 16.2019,21.9699 16.4697,21.9699 L17.4585,21.9699 C17.6233,21.9699 17.7057,21.9184 17.7057,21.8154 L17.7057,21.5991 L17.7057,20.5794 C17.7057,20.3734 17.7984,20.2704 17.9838,20.2704 L18.2619,20.2704 C18.4061,20.2704 18.56575,20.26525 18.74085,20.25495 C18.91595,20.24465 19.0859,20.2395 19.2507,20.2395 L19.6524,20.2395 C19.9408,20.2395 20.085,20.1365 20.085,19.9305 L20.085,19.2507 C20.085,19.0653 19.982,18.9726 19.776,18.9726 L17.9838,18.9726 C17.7778,19.0138 17.6748,18.9726 17.6748,18.849 C17.6748,18.7872 17.66965,18.70995 17.65935,18.61725 C17.64905,18.52455 17.6439,18.437 17.6439,18.3546 C17.6439,18.2722 17.67995,18.2104 17.75205,18.1692 C17.82415,18.128 17.9014,18.1074 17.9838,18.1074 L19.8069,18.1074 C20.0129,18.1074 20.1159,18.0353 20.1159,17.8911 L20.1159,17.1495 C20.1159,17.0671 20.07985,16.9847 20.00775,16.9023 C19.93565,16.8199 19.8481,16.7787 19.7451,16.7787 L18.6945,16.7787 L18.6945,16.7787 Z" id="形状" fill="url(#linearGradient-1)"></path>
            </g>
        </g>
    </g>
</svg>